# xmcd
#
# Track frame offsets:
#	150
#	8337
#	19955
#	29325
#	44557
#	56267
#	68770
#	81632
#	94202
#	104677
#	114427
#	123955
#	135930
#	145182
#	155137
#	167487
#	178280
#	193780
#	203700
#	215980
#	228252
#	238505
#	249410
#	257402
#	268257
#	280262
#	288047
#	300315
#	309502
#	321887
#
# Disc length: 4478
#
# Revision: 5
# Processed by: cddbd v1.5.1PL0 Copyright (c) Steve Scherf et al.
# Submitted via: dBpowerAMP V4.0
# Normalized: r4:DSETVAR1,TDELIM( - )
#
DISCID=ad117c1e
DTITLE=Various Artist - Real Stones
DYEAR=1989
DGENRE=Rock
TTITLE0=Chuck Berry - Come on
TTITLE1=Muddy Waters - I just want to be loved
TTITLE2=Chuck Berry - Beye Beye Johnny
TTITLE3=Arthur Alexander - You better move on
TTITLE4=Barrett Strong - Money
TTITLE5=Chuck Berry - Route 66
TTITLE6=Muddy Waters - I just want to make love to you
TTITLE7=Chuck Berry - Carol
TTITLE8=Bo Diddley - Mona
TTITLE9=Benny Spellman - Fortune Teller
TTITLE10=Chuck Berry - Confessin' the Blues
TTITLE11=Chuck Berry - Around and Around
TTITLE12=Chuck Berry - Don't lie to me
TTITLE13=Chuck Berry - Memphis
TTITLE14=Bo Diddley - Roadrunner
TTITLE15=Chuck Berry - Roll over Beethoven
TTITLE16=Bo Diddley - Cops and Robbers
TTITLE17=Chuck Berry - Down the Road a Piece
TTITLE18=Muddy Waters - I can't be satisfied
TTITLE19=Chuck Berry - You can't catch me
TTITLE20=Dale Hawkins - Suzie Q
TTITLE21=Howlin' Wolf - Little Red Rooster
TTITLE22=Chuck Berry - Talin' about you
TTITLE23=Muddy Waters - Look what you've done
TTITLE24=Chuck Berry - Little Queeny
TTITLE25=Chuck Berry - Let it Rock
TTITLE26=Chuck Berry - Run Rudolph Run
TTITLE27=Bo Diddley - Crackin' up
TTITLE28=Bo Diddley - I'm a Man
TTITLE29=Muddy Waters - Rolling Stone
EXTD=
EXTT0=
EXTT1=
EXTT2=
EXTT3=
EXTT4=
EXTT5=
EXTT6=
EXTT7=
EXTT8=
EXTT9=
EXTT10=
EXTT11=
EXTT12=
EXTT13=
EXTT14=
EXTT15=
EXTT16=
EXTT17=
EXTT18=
EXTT19=
EXTT20=
EXTT21=
EXTT22=
EXTT23=
EXTT24=
EXTT25=
EXTT26=
EXTT27=
EXTT28=
EXTT29=
PLAYORDER=
